<svg width="89" height="51" viewBox="0 0 89 51" fill="none" xmlns="http://www.w3.org/2000/svg">
<path d="M65.1592 37.6396C63.1385 37.6396 61.4951 35.9948 61.4951 33.9741C61.4951 31.9534 63.1389 30.31 65.1592 30.31C67.1799 30.31 68.8233 31.9537 68.8233 33.9741C68.8237 35.9948 67.1799 37.6396 65.1592 37.6396ZM24.6572 37.6396C22.6365 37.6396 20.9931 35.9948 20.9931 33.9741C20.9931 31.9534 22.6365 30.31 24.6572 30.31C26.6779 30.31 28.3213 31.9537 28.3213 33.9741C28.3213 35.9948 26.6775 37.6396 24.6572 37.6396ZM66.4737 15.5663L73.7971 2.88258C73.9987 2.53253 74.0532 2.11683 73.9486 1.72667C73.8441 1.33651 73.589 1.00375 73.2394 0.801381C72.8894 0.599833 72.4737 0.54536 72.0835 0.649911C71.6934 0.754463 71.3606 1.0095 71.1582 1.35908L63.7431 14.2034C58.0723 11.6155 51.7036 10.1741 44.9082 10.1741C38.1128 10.1741 31.7441 11.6155 26.0736 14.2034L18.6585 1.35908C18.4561 1.00948 18.1233 0.754431 17.7331 0.649882C17.3428 0.545332 16.9271 0.599815 16.577 0.801381C16.2272 1.00354 15.9719 1.3363 15.8674 1.72655C15.7628 2.1168 15.8174 2.5326 16.0193 2.88258L23.3427 15.5663C10.7675 22.4057 2.1666 35.1371 0.908203 50.1782H88.9082C87.6487 35.1371 79.0478 22.4057 66.4737 15.5663Z" fill="#454545"/>
</svg>
