<svg width="89" height="53" viewBox="0 0 89 53" fill="none" xmlns="http://www.w3.org/2000/svg">
<path d="M25.7153 19.1863C25.7153 20.2717 25.8327 21.148 26.038 21.7897C26.2727 22.435 26.566 23.139 26.9767 23.9017C27.1233 24.1327 27.182 24.3673 27.182 24.5727C27.182 24.866 27.006 25.1593 26.6247 25.4527L24.7803 26.681C24.5574 26.8417 24.2923 26.9335 24.0177 26.945C23.7243 26.945 23.431 26.7983 23.1413 26.5343C22.7475 26.1107 22.3951 25.6502 22.089 25.1593C21.7612 24.597 21.4578 24.0208 21.1797 23.4324C18.899 26.1237 16.028 27.4693 12.574 27.4693C10.1173 27.4693 8.15568 26.769 6.72201 25.3647C5.28834 23.9567 4.55868 22.0867 4.55868 19.7437C4.55868 17.2577 5.43501 15.2337 7.22068 13.7157C9.00634 12.194 11.375 11.4313 14.389 11.4313C15.3863 11.4313 16.4093 11.5194 17.491 11.666C18.5763 11.8127 19.691 12.0474 20.857 12.3114V10.1737C20.857 7.94802 20.3913 6.39702 19.482 5.49135C18.547 4.58202 16.9667 4.14568 14.7153 4.14568C13.6887 4.14568 12.6327 4.25935 11.551 4.52335C10.4693 4.78735 9.41334 5.11002 8.39034 5.52068C8.0568 5.67003 7.71384 5.79741 7.36368 5.90202C7.21287 5.95062 7.05628 5.97898 6.89801 5.98635C6.48734 5.98635 6.28201 5.69302 6.28201 5.08068V3.64702C6.28201 3.17768 6.34068 2.82568 6.48734 2.62035C6.70883 2.35415 6.99032 2.14429 7.30868 2.00802C8.33168 1.48002 9.56001 1.04002 10.9937 0.688018C12.4861 0.305949 14.0219 0.119829 15.5623 0.134351C19.0457 0.134351 21.5903 0.926351 23.2293 2.50668C24.839 4.08335 25.6567 6.48502 25.6567 9.70435V19.1863H25.7153ZM13.8353 23.6377C14.7997 23.6377 15.7933 23.4617 16.8493 23.1097C17.9017 22.7577 18.8403 22.116 19.6287 21.2397C20.098 20.6823 20.45 20.0663 20.626 19.3623C20.7983 18.662 20.9193 17.8114 20.9193 16.8177V15.5894C20.0311 15.3728 19.1313 15.2063 18.2243 15.0907C17.3122 14.9748 16.3938 14.916 15.4743 14.9147C13.5127 14.9147 12.079 15.296 11.111 16.088C10.1467 16.8764 9.68101 17.9873 9.68101 19.4503C9.68101 20.8253 10.0293 21.852 10.7627 22.5524C11.463 23.2857 12.486 23.6377 13.8353 23.6377ZM37.3387 26.7984C36.8107 26.7984 36.4587 26.7103 36.224 26.505C35.9893 26.329 35.784 25.9183 35.608 25.3647L28.733 2.73768C28.5993 2.35829 28.5107 1.96447 28.469 1.56435C28.469 1.09502 28.7037 0.831018 29.1693 0.831018H32.0403C32.594 0.831018 32.9753 0.922684 33.177 1.12435C33.4153 1.30035 33.5913 1.71102 33.7637 2.26835L38.6843 21.643L43.2493 2.26835C43.396 1.68168 43.572 1.30035 43.803 1.12435C44.1548 0.908614 44.5644 0.806214 44.9763 0.831018H47.3157C47.873 0.831018 48.2543 0.922684 48.489 1.12435C48.72 1.30035 48.929 1.71102 49.0427 2.26835L53.6663 21.8777L58.73 2.26835C58.906 1.68168 59.1113 1.30035 59.3167 1.12435C59.6563 0.908714 60.0555 0.806039 60.457 0.831018H63.1813C63.647 0.831018 63.9147 1.06935 63.9147 1.56435C63.9147 1.71102 63.8817 1.85768 63.8523 2.03368C63.8064 2.28388 63.7377 2.52935 63.647 2.76702L56.596 25.3903C56.42 25.977 56.2147 26.3547 55.98 26.5307C55.6496 26.7426 55.2609 26.8453 54.869 26.824H52.35C51.7963 26.824 51.415 26.736 51.1767 26.5307C50.9457 26.3253 50.7403 25.944 50.6267 25.3573L46.0873 6.48135L41.5773 25.328C41.4307 25.9147 41.2583 26.296 41.0273 26.5014C40.789 26.7067 40.3783 26.7947 39.854 26.7947L37.3387 26.7984ZM74.944 27.5867C73.4223 27.5867 71.9007 27.4107 70.4377 27.0623C68.9747 26.7104 67.8343 26.329 67.0717 25.889C66.6023 25.6287 66.2833 25.3353 66.166 25.0713C66.0517 24.8125 65.9918 24.533 65.99 24.25V22.7577C65.99 22.1454 66.2247 21.852 66.661 21.852C66.837 21.852 67.013 21.8813 67.189 21.94C67.365 21.9987 67.629 22.116 67.9223 22.2333C68.916 22.6733 69.9977 23.0217 71.1417 23.2563C72.3113 23.491 73.4517 23.6083 74.625 23.6083C76.4657 23.6083 77.903 23.2857 78.8967 22.6403C79.373 22.3526 79.7647 21.9438 80.032 21.4557C80.2992 20.9675 80.4325 20.4174 80.4183 19.861C80.4291 19.4842 80.3649 19.109 80.2296 18.7572C80.0943 18.4053 79.8905 18.0839 79.63 17.8114C79.102 17.2577 78.1047 16.759 76.671 16.2897L72.4287 14.9697C70.291 14.2987 68.7107 13.305 67.7463 11.9887C66.8025 10.7739 66.2869 9.28104 66.2797 7.74268C66.2797 6.51435 66.5473 5.43268 67.0717 4.49402C67.5997 3.55902 68.3 2.73768 69.18 2.09602C70.06 1.42135 71.05 0.922684 72.2233 0.574351C73.3967 0.222351 74.625 0.0756836 75.912 0.0756836C76.5537 0.0756836 77.2283 0.105017 77.8737 0.193017C78.5447 0.281017 79.157 0.39835 79.773 0.515683C80.3597 0.66235 80.917 0.809018 81.4413 0.981351C81.9693 1.15735 82.38 1.33335 82.6733 1.50935C83.0189 1.6833 83.3199 1.93417 83.5533 2.24268C83.7423 2.52742 83.8337 2.86585 83.8137 3.20702V4.58202C83.8137 5.19802 83.579 5.52068 83.139 5.52068C82.7495 5.47602 82.3722 5.35649 82.028 5.16868C80.2598 4.38758 78.3435 3.99856 76.4107 4.02835C74.7423 4.02835 73.4223 4.28868 72.5167 4.84602C71.6073 5.40335 71.1417 6.25035 71.1417 7.44935C71.1417 8.27068 71.435 8.97468 72.0217 9.52835C72.6047 10.0857 73.6863 10.643 75.2373 11.1417L79.3953 12.4543C81.5 13.129 83.0253 14.0677 83.931 15.2667C84.8367 16.4657 85.2767 17.8407 85.2767 19.3623C85.2767 20.62 85.0127 21.764 84.5177 22.7577C83.9897 23.755 83.2857 24.6314 82.38 25.3354C81.4707 26.0687 80.389 26.593 79.1313 26.9743C77.8113 27.3813 76.44 27.5867 74.944 27.5867ZM80.477 41.8134C70.8483 48.9267 56.8563 52.6997 44.8297 52.6997C27.9703 52.6997 12.783 46.4664 1.30634 36.1044C0.400677 35.2867 1.21834 34.172 2.30368 34.8173C14.7117 42.015 30.02 46.3783 45.8527 46.3783C56.5373 46.3783 68.2707 44.1527 79.0727 39.5877C80.6823 38.8544 82.0573 40.64 80.477 41.8134ZM84.4883 37.2447C83.2563 35.668 76.3483 36.4857 73.217 36.867C72.282 36.9843 72.1353 36.163 72.986 35.547C78.486 31.686 87.5317 32.797 88.584 34.084C89.6363 35.404 88.2907 44.446 83.139 48.7764C82.3507 49.451 81.588 49.099 81.94 48.2227C83.1133 45.326 85.7167 38.7994 84.4883 37.2447Z" fill="#454545"/>
</svg>
