<svg width="89" height="84" viewBox="0 0 89 84" fill="none" xmlns="http://www.w3.org/2000/svg">
<path d="M82.974 83.9786C83.9183 83.9796 84.8492 83.7555 85.6895 83.3249C86.5298 82.8942 87.2554 82.2694 87.806 81.5023C88.3566 80.7352 88.7164 79.8478 88.8555 78.9139C88.9946 77.9799 88.9091 77.0263 88.606 76.132V76.1393L64.5343 4.84096C64.1377 3.66317 63.3817 2.63943 62.3727 1.91391C61.3636 1.18839 60.1525 0.79762 58.9097 0.796631H30.9257C29.6829 0.79762 28.4717 1.18839 27.4627 1.91391C26.4537 2.63943 25.6976 3.66317 25.301 4.84096L1.23301 76.1356C0.930632 77.0297 0.845664 77.983 0.985142 78.9164C1.12462 79.8499 1.48453 80.7367 2.03505 81.5033C2.58557 82.27 3.31085 82.8944 4.1508 83.3249C4.99075 83.7553 5.92118 83.9794 6.86501 83.9786H24.2487C25.4921 83.9784 26.7041 83.588 27.7138 82.8624C28.7236 82.1368 29.4802 81.1127 29.877 79.9343L33.4593 69.3303L51.5983 82.8053C52.625 83.568 53.8643 83.9786 55.1403 83.9786H82.974ZM43.8323 38.0316L57.1203 77.408C57.2209 77.7054 57.2494 78.0225 57.2032 78.3331C57.1571 78.6437 57.0378 78.9388 56.8551 79.1942C56.6725 79.4496 56.4317 79.6579 56.1526 79.8019C55.8736 79.9458 55.5643 80.0214 55.2503 80.0223V80.0186H55.1403C54.7153 80.0192 54.3013 79.8829 53.9597 79.63L19.9073 54.33H37.7017L43.8323 38.0316ZM60.8493 80.0186C61.2747 78.8233 61.326 77.474 60.875 76.1393L36.8143 4.84096C36.8059 4.81647 36.7974 4.79202 36.7887 4.76763H58.9133C59.3273 4.76702 59.731 4.89615 60.0677 5.13686C60.4045 5.37758 60.6573 5.71778 60.7907 6.10963L84.8513 77.408C85.0191 77.9049 84.9828 78.4481 84.7504 78.9183C84.5181 79.3885 84.1086 79.7473 83.612 79.916" fill="#454545"/>
</svg>
