<svg width="131" height="89" viewBox="0 0 131 89" fill="none" xmlns="http://www.w3.org/2000/svg">
<path d="M130.908 57.5846C130.908 52.0649 128.716 46.7714 124.813 42.8684C120.91 38.9655 115.616 36.7728 110.097 36.7728H107.495C107.496 32.8956 106.534 29.0789 104.695 25.6653C102.857 22.2518 100.199 19.3482 96.9611 17.2154C93.7232 15.0826 90.0064 13.7873 86.1442 13.4458C82.2821 13.1043 78.3956 13.7272 74.8336 15.2587C71.2405 9.08351 65.5561 4.39806 58.8086 2.04982C52.061 -0.298413 44.6959 -0.154377 38.0453 2.45588C31.3948 5.06613 25.8979 9.97025 22.549 16.2812C19.2 22.5922 18.2202 29.8932 19.7866 36.8639C14.4658 37.3628 9.54091 39.8893 6.03209 43.9202C2.52326 47.951 0.699485 53.1771 0.938583 58.5159C1.17768 63.8546 3.46133 68.8968 7.31643 72.5978C11.1715 76.2988 16.3026 78.375 21.6467 78.3963H68.8633C69.6052 80.7764 71.103 82.8497 73.1297 84.3016C76.1462 86.3859 79.7259 87.5022 83.3925 87.5022C87.059 87.5022 90.6387 86.3859 93.6552 84.3016L93.8894 84.1195L95.2942 85.1601C98.2856 87.308 101.888 88.4388 105.57 88.3859C108.308 88.4055 111.014 87.7959 113.478 86.6039C114.316 86.1989 115.113 85.7155 115.859 85.1601C117.255 84.1966 118.403 82.9166 119.21 81.4247C120.017 79.9327 120.46 78.271 120.502 76.5753C120.502 76.2631 120.502 75.9509 120.502 75.6387C123.671 73.8095 126.301 71.1775 128.128 68.0078C129.955 64.8382 130.914 61.243 130.908 57.5846ZM114.298 83.1049C113.696 83.5572 113.051 83.9493 112.373 84.2756C109.908 85.4574 107.177 85.9712 104.451 85.7658C101.725 85.5603 99.1016 84.6428 96.842 83.1049L93.7073 80.8027L90.5855 78.3963L88.8425 77.0956L87.1126 75.7948L85.3696 74.4941H85.2785C84.7594 74.1451 84.148 73.9588 83.5225 73.9588C82.897 73.9588 82.2857 74.1451 81.7665 74.4941L81.6495 74.5982C81.4498 74.7485 81.2906 74.946 81.1862 75.173C81.0818 75.4001 81.0354 75.6495 81.0511 75.8989C81.0776 76.138 81.1552 76.3686 81.2787 76.5751C81.4021 76.7815 81.5685 76.959 81.7665 77.0956L81.9356 77.1996C82.4149 77.4874 82.9635 77.6394 83.5225 77.6394C84.0816 77.6394 84.6301 77.4874 85.1094 77.1996L85.2785 77.0956C85.4954 76.9439 85.6736 76.7434 85.7988 76.5102L86.7223 77.1996L88.4653 78.5004L92.8748 81.8042C92.6667 81.9733 92.4716 82.1554 92.2374 82.3245C89.6648 84.0788 86.6233 85.0171 83.5095 85.0171C80.3957 85.0171 77.3542 84.0788 74.7816 82.3245C73.4306 81.3516 72.3696 80.0298 71.7119 78.5004C71.5443 78.0789 71.4137 77.6437 71.3217 77.1996C71.1569 76.3403 71.1569 75.4575 71.3217 74.5982C71.7591 72.4403 73.0125 70.5345 74.8206 69.2782C75.4291 68.832 76.0729 68.4361 76.7457 68.0945C78.09 67.4493 79.5239 67.0108 80.9991 66.7938C83.8418 66.342 86.7537 66.6656 89.4279 67.7303C90.4337 68.1264 91.3863 68.6464 92.2635 69.2782L94.4877 70.9171L95.2682 71.5024L95.8275 71.9186L99.2614 74.5201L100.939 75.8208L102.617 77.1216L103.645 77.889C104.034 78.1454 104.481 78.3018 104.946 78.3443H105.882C106.35 78.2885 106.796 78.1188 107.183 77.85C107.489 77.6383 107.717 77.3322 107.833 76.9785C107.911 76.7633 107.935 76.5322 107.904 76.3055C107.872 76.0788 107.785 75.8633 107.651 75.6778C107.531 75.4785 107.372 75.3058 107.183 75.1705C106.666 74.8147 106.054 74.6243 105.427 74.6243C104.8 74.6243 104.187 74.8147 103.671 75.1705C103.486 75.3064 103.331 75.4791 103.216 75.6778H103.034L101.291 74.377L96.0876 70.4748L96.725 69.9545C99.2976 68.2002 102.339 67.2619 105.453 67.2619C108.567 67.2619 111.608 68.2002 114.181 69.9545C114.936 70.5191 115.61 71.1843 116.184 71.9316C116.693 72.5922 117.092 73.3299 117.368 74.1169V74.2209C117.656 75.0565 117.779 75.9399 117.732 76.8224C117.667 78.0602 117.325 79.2675 116.731 80.3551C116.137 81.4426 115.305 82.3825 114.298 83.1049ZM119.8 72.9983C119.478 72.1807 119.04 71.414 118.499 70.722C117.745 69.6807 116.837 68.7598 115.807 67.9904C112.78 65.8943 109.186 64.7713 105.505 64.7713C101.823 64.7713 98.2296 65.8943 95.2031 67.9904L95.034 68.1205L93.6292 67.0929C92.5968 66.3184 91.4689 65.6801 90.2733 65.1938C88.0806 64.3204 85.7397 63.8787 83.3794 63.8931C82.4084 63.8945 81.4389 63.9685 80.4788 64.1142C78.7362 64.3716 77.043 64.8935 75.458 65.6621L72.5053 67.5872C70.3792 69.3143 68.9852 71.7817 68.6031 74.4941C68.5512 74.8909 68.5252 75.2906 68.5251 75.6908V75.7948H21.6467C16.9678 75.7801 12.4742 73.965 9.09767 70.7261C5.72118 67.4871 3.72095 63.0727 3.51183 58.3985C3.30272 53.7244 4.90076 49.149 7.97452 45.6215C11.0483 42.0939 15.3619 39.8848 20.0207 39.4523L22.9474 39.1792L22.297 36.2786C21.8557 34.3061 21.6375 32.2903 21.6467 30.2692C21.6512 24.2638 23.6346 18.4272 27.2902 13.6626C30.9457 8.89795 36.0696 5.47078 41.869 3.91134C47.6684 2.35191 53.82 2.74712 59.3722 5.03584C64.9244 7.32456 69.5676 11.3792 72.5834 16.5724L73.754 18.5626L75.8612 17.6521C79.0271 16.2908 82.4816 15.7371 85.9143 16.0405C89.3471 16.3439 92.6508 17.4951 95.5289 19.3906C98.407 21.2861 100.769 23.8666 102.404 26.9005C104.038 29.9344 104.894 33.3267 104.894 36.7728V39.3743H110.097C114.047 39.3729 117.89 40.6559 121.047 43.0299C124.204 45.4039 126.504 48.7401 127.599 52.5354C128.694 56.3306 128.526 60.379 127.119 64.0701C125.712 67.7612 123.143 70.8948 119.8 72.9983Z" fill="#454545"/>
</svg>
