<svg width="89" height="45" viewBox="0 0 89 45" fill="none" xmlns="http://www.w3.org/2000/svg">
<path d="M4.94154 0.571045C2.6902 0.571045 0.908203 2.33104 0.908203 4.53104C0.908113 5.05731 1.01292 5.57831 1.2165 6.0636C1.42008 6.54889 1.71834 6.98874 2.09387 7.35744C2.46939 7.72613 2.91463 8.01628 3.40358 8.21092C3.89253 8.40556 4.41536 8.50079 4.94154 8.49104C7.21487 8.49104 9.01154 6.73105 9.01154 4.53104C9.01154 2.33104 7.21487 0.571045 4.94154 0.571045ZM32.8449 0.644378C20.5249 0.644378 12.8249 9.04104 12.8249 22.3877C12.8249 35.8444 20.5249 44.2044 32.8449 44.2044C45.0915 44.2044 52.8282 35.8444 52.8282 22.3877C52.8282 9.04104 45.0915 0.644378 32.8449 0.644378ZM72.5915 0.644378C63.4249 0.644378 56.8982 5.70438 56.8982 13.221C56.8982 19.1977 60.6015 22.9377 68.3749 24.7344L73.8382 26.0544C79.1549 27.2644 81.3182 29.0244 81.3182 32.0677C81.3182 35.5877 77.7615 38.0811 72.7015 38.0811C67.5315 38.0811 63.6449 35.551 63.2415 31.6644H55.9082C56.2015 39.4377 62.5815 44.2044 72.2615 44.2044C82.4915 44.2044 88.9082 39.181 88.9082 31.1877C88.9082 24.9177 85.2415 21.361 76.7349 19.4177L71.8582 18.3177C66.6882 17.071 64.5615 15.421 64.5615 12.6344C64.5615 9.11438 67.7882 6.76771 72.5549 6.76771C77.3582 6.76771 80.6582 9.15104 81.0249 13.0744H88.2115C88.0282 5.66771 81.9049 0.644378 72.5915 0.644378ZM32.8449 7.06105C40.3249 7.06105 45.1282 13.0377 45.1282 22.3877C45.1282 31.811 40.3249 37.7877 32.8449 37.7877C25.2915 37.7877 20.5249 31.811 20.5249 22.3877C20.5249 13.0377 25.2915 7.06105 32.8449 7.06105ZM1.3152 12.5244V43.5077H8.6082V12.5244H1.31154H1.3152Z" fill="#454545"/>
</svg>
