<svg width="89" height="89" viewBox="0 0 89 89" fill="none" xmlns="http://www.w3.org/2000/svg">
<path d="M69.4153 44.1832C69.4153 30.3708 58.1785 19.134 44.3661 19.134C30.5537 19.134 19.3169 30.3708 19.3169 44.1832C19.3169 51.8159 22.7575 58.6499 28.1578 63.2471V71.5693L21.2221 78.505C20.9451 78.7806 20.7904 79.1548 20.7904 79.5468V82.4937H23.7373V80.1568L30.673 73.2211C30.95 72.9456 31.1047 72.5713 31.1047 72.1794V65.3955C32.4942 66.2663 33.9721 67.003 35.5252 67.591V74.5163L31.5365 78.505C31.2595 78.7806 31.1047 79.1548 31.1047 79.5468V82.4937H34.0517V80.1568L38.0404 76.1681C38.3174 75.8925 38.4722 75.5183 38.4722 75.1263V68.503C39.9029 68.8493 41.3793 69.0689 42.8926 69.1573V82.4937H45.8396V69.1573C47.3528 69.0689 48.8293 68.8493 50.26 68.503V75.1263C50.26 75.5183 50.4147 75.8925 50.6917 76.1681L54.6805 80.1568V82.4937H57.6274V79.5468C57.6274 79.1548 57.4727 78.7806 57.1957 78.505L53.207 74.5163V67.591C54.76 67.0016 56.2379 66.2663 57.6274 65.3955V72.1794C57.6274 72.5713 57.7821 72.9456 58.0591 73.2211L64.9948 80.1568V82.4937H67.9418V79.5468C67.9418 79.1548 67.7871 78.7806 67.5101 78.505L60.5744 71.5693V63.2471C65.9747 58.6499 69.4153 51.8159 69.4153 44.1832ZM44.3661 22.081C46.9859 22.081 49.7929 25.6453 51.5243 31.5113C46.8062 32.4602 41.926 32.4602 37.2079 31.5113C38.9392 25.6453 41.7462 22.081 44.3661 22.081ZM44.3661 35.1788C47.0036 35.1788 49.6382 34.9003 52.2301 34.3713C52.7546 36.8689 53.0906 39.6685 53.1746 42.7097H35.5576C35.6416 39.6685 35.9776 36.8674 36.5021 34.3713C39.094 34.9003 41.7285 35.1788 44.3661 35.1788ZM56.12 45.6567H66.3932C66.1014 50.055 64.5218 54.0968 62.0228 57.4225C59.792 56.2849 57.4712 55.3773 55.0901 54.6995C55.6795 51.9337 56.0346 48.888 56.12 45.6567ZM52.2301 53.9966C47.0493 52.9386 41.6843 52.9386 36.5036 53.9966C35.979 51.4991 35.6431 48.6994 35.5591 45.6567H53.1746C53.0906 48.6994 52.7546 51.4991 52.2301 53.9966ZM56.12 42.7097C56.0346 39.4784 55.6795 36.4327 55.0901 33.6685C57.4712 32.9907 59.792 32.083 62.0228 30.9455C64.5218 34.2711 66.1014 38.3129 66.3932 42.7112H56.12V42.7097ZM32.6121 42.7097H22.339C22.6308 38.3114 24.2103 34.2696 26.7094 30.944C28.9402 32.0815 31.2609 32.9907 33.6421 33.667C33.0527 36.4342 32.6976 39.4784 32.6121 42.7097ZM32.6121 45.6567C32.6976 48.888 33.0527 51.9337 33.6421 54.6995C31.2609 55.3758 28.9402 56.2835 26.7094 57.4225C24.2103 54.0968 22.6308 50.055 22.339 45.6567H32.6121ZM34.3597 57.5565C35.2791 60.7024 36.5168 63.3576 37.9889 65.3395C34.4216 64.2624 31.2315 62.31 28.6735 59.727C30.5109 58.834 32.4147 58.115 34.3597 57.5565ZM37.2079 56.8552C41.926 55.9062 46.8062 55.9062 51.5243 56.8552C49.7929 62.7211 46.9859 66.2854 44.3661 66.2854C41.7462 66.2854 38.9392 62.7211 37.2079 56.8552ZM54.3725 57.5565C56.3175 58.115 58.2212 58.834 60.0601 59.7255C57.5022 62.3085 54.3121 64.2609 50.7448 65.338C52.2153 63.3576 53.453 60.7024 54.3725 57.5565ZM60.0601 28.6409C58.2212 29.5339 56.3175 30.2515 54.3725 30.8099C53.453 27.664 52.2153 25.0088 50.7433 23.027C54.3121 24.1056 57.5007 26.0579 60.0601 28.6409ZM37.9889 23.0284C36.5168 25.0088 35.2806 27.664 34.3597 30.8114C32.4147 30.2529 30.5109 29.5339 28.672 28.6424C31.2315 26.0579 34.4201 24.1056 37.9889 23.0284Z" fill="#454545"/>
<path d="M67.9418 85.4407H64.9949V88.3876H67.9418V85.4407Z" fill="#454545"/>
<path d="M57.6274 85.4407H54.6804V88.3876H57.6274V85.4407Z" fill="#454545"/>
<path d="M23.7374 85.4407H20.7904V88.3876H23.7374V85.4407Z" fill="#454545"/>
<path d="M34.0517 85.4407H31.1047V88.3876H34.0517V85.4407Z" fill="#454545"/>
<path d="M45.8395 85.4407H42.8926V88.3876H45.8395V85.4407Z" fill="#454545"/>
<path d="M39.1573 15.1454L41.2409 17.2289C42.9648 15.505 45.7674 15.505 47.4914 17.2289L49.5749 15.1454C46.703 12.2736 42.0292 12.2736 39.1573 15.1454Z" fill="#454545"/>
<path d="M54.2105 10.7249C48.7822 5.29661 39.9501 5.29661 34.5233 10.7249L36.6068 12.8084C40.8858 8.52943 47.848 8.52943 52.127 12.8084L54.2105 10.7249Z" fill="#454545"/>
<path d="M58.6692 6.30446C50.7831 -1.58456 37.9491 -1.58456 30.063 6.30446L32.1465 8.38796C38.8833 1.65121 49.8489 1.65121 56.5857 8.38796L58.6692 6.30446Z" fill="#454545"/>
<path d="M15.3282 38.9745C12.4564 41.8463 12.4564 46.5202 15.3282 49.392L17.4117 47.3085C15.6877 45.5845 15.6877 42.782 17.4117 41.058L15.3282 38.9745Z" fill="#454545"/>
<path d="M10.9078 54.0276L12.9913 51.9441C8.71229 47.6651 8.71229 40.7029 12.9913 36.424L10.9078 34.3405C5.47947 39.7673 5.47947 48.5993 10.9078 54.0276Z" fill="#454545"/>
<path d="M6.48732 58.4864L8.57082 56.4029C1.83406 49.6647 1.83406 38.702 8.57082 31.9638L6.48732 29.8802C-1.40023 37.7678 -1.40023 50.5989 6.48732 58.4864Z" fill="#454545"/>
<path d="M73.4041 49.392C76.2759 46.5202 76.2759 41.8463 73.4041 38.9745L71.3206 41.058C73.0445 42.782 73.0445 45.5845 71.3206 47.3085L73.4041 49.392Z" fill="#454545"/>
<path d="M75.741 36.4225C80.02 40.7015 80.02 47.6637 75.741 51.9427L77.8245 54.0262C83.2528 48.5979 83.2528 39.7658 77.8245 34.339L75.741 36.4225Z" fill="#454545"/>
<path d="M80.1614 56.4029L82.2449 58.4864C90.1324 50.5989 90.1324 37.7663 82.2449 29.8802L80.1614 31.9638C86.8981 38.702 86.8981 49.6647 80.1614 56.4029Z" fill="#454545"/>
</svg>
