<svg width="66" height="89" viewBox="0 0 66 89" fill="none" xmlns="http://www.w3.org/2000/svg">
<path d="M21.362 68.441C21.362 68.441 17.9997 70.399 23.7563 71.059C30.7303 71.8584 34.2943 71.7447 41.976 70.2854C41.976 70.2854 44 71.554 46.8197 72.654C29.59 80.035 7.83201 72.2214 21.362 68.441ZM19.2537 58.8087C19.2537 58.8087 15.4843 61.599 21.241 62.1967C28.6917 62.963 34.573 63.029 44.7553 61.0674C44.7553 61.0674 46.1633 62.4937 48.3743 63.2747C27.5513 69.365 4.34867 63.7514 19.2537 58.8087ZM37.0003 42.4627C41.2463 47.3504 35.8857 51.7504 35.8857 51.7504C35.8857 51.7504 46.662 46.1844 41.712 39.2177C37.0883 32.7204 33.5427 29.4937 52.7377 18.3617C52.7377 18.358 22.6123 25.882 37.0003 42.4627ZM59.785 75.569C59.785 75.569 62.2747 77.6187 57.046 79.2027C47.102 82.2167 15.6567 83.1224 6.92634 79.3237C3.78768 77.956 9.67634 76.0604 11.5243 75.6644C13.4567 75.2464 14.5603 75.3234 14.5603 75.3234C11.066 72.863 -8.01166 80.1524 4.86934 82.2424C39.996 87.9367 68.8967 79.6757 59.785 75.569ZM22.979 48.8244C22.979 48.8244 6.98501 52.623 17.3177 54.0017C21.6773 54.5847 30.3747 54.4527 38.4743 53.7744C45.0963 53.217 51.7403 52.0254 51.7403 52.0254C51.7403 52.0254 49.4047 53.0227 47.7143 54.1777C31.4747 58.4494 0.0990072 56.462 9.13367 52.095C16.7677 48.4064 22.979 48.8244 22.979 48.8244ZM51.667 64.8624C68.178 56.2824 60.544 48.036 55.2163 49.1507C53.9147 49.422 53.328 49.6567 53.328 49.6567C53.328 49.6567 53.812 48.8977 54.7397 48.5677C65.2813 44.8607 73.3883 59.498 51.337 65.295C51.337 65.2914 51.5937 65.0677 51.667 64.8624ZM41.712 0.387695C41.712 0.387695 50.8567 9.53236 33.0403 23.5977C18.755 34.88 29.7843 41.315 33.0367 48.663C24.6987 41.1354 18.579 34.517 22.682 28.3534C28.71 19.3004 45.4043 14.915 41.712 0.387695V0.387695ZM24.5997 88.109C40.447 89.1247 64.7827 87.548 65.3583 80.0497C65.3583 80.0497 64.251 82.8914 52.261 85.15C38.7383 87.6947 22.0513 87.3977 12.1587 85.766C12.1587 85.7624 14.1863 87.4417 24.5997 88.109Z" fill="#454545"/>
</svg>
