<svg width="87" height="89" viewBox="0 0 87 89" fill="none" xmlns="http://www.w3.org/2000/svg">
<path d="M85.4971 84.9979L77.1607 74.1743V49.3869C77.1607 48.2895 76.27 47.3988 75.1725 47.3988H22.5479C21.4504 47.3988 20.5597 48.2895 20.5597 49.3869V74.1743L12.0782 85.1858C11.616 85.7862 11.5355 86.5974 11.8695 87.2773C12.2035 87.9573 12.8954 88.3877 13.6529 88.3877H84.0676C84.0745 88.3867 84.0815 88.3867 84.0875 88.3877C85.1849 88.3877 86.0756 87.497 86.0756 86.3995C86.0756 85.8528 85.8549 85.3577 85.4971 84.9979ZM73.1854 51.3751V74.0719H24.5361V51.3751H73.1854ZM17.6938 84.4114L24.1225 76.0651C24.1235 76.0641 24.1235 76.0621 24.1245 76.0611H73.5959C73.5969 76.0621 73.5969 76.0641 73.5979 76.0651L80.0266 84.4114H17.6938ZM15.6211 31.3374L21.6671 37.3834C21.9465 37.6627 22.3262 37.8198 22.7219 37.8198C23.1175 37.8198 23.4962 37.6627 23.7766 37.3834L29.8226 31.3374H42.4007V37.6945H38.8329C38.4601 37.6945 38.1192 37.9023 37.9492 38.2343C37.7792 38.5654 37.808 38.963 38.0247 39.2672L43.0836 46.3421C43.2705 46.6025 43.5717 46.7576 43.8918 46.7576C44.2119 46.7576 44.5141 46.6025 44.7 46.3421L49.7579 39.2672C49.9746 38.963 50.0034 38.5654 49.8334 38.2343C49.6634 37.9023 49.3215 37.6945 48.9497 37.6945H45.3829V29.8463C45.3829 29.0232 44.7159 28.3552 43.8918 28.3552H29.8216L24.213 22.7466V18.5714H31.9241C36.2175 18.5714 39.7644 15.3496 40.2942 11.1983H64.2784V15.0772C59.7792 15.7959 56.3258 19.6927 56.3258 24.3908C56.3258 29.0898 59.7792 32.9866 64.2784 33.7053V37.6945H60.7107C60.3379 37.6945 59.9969 37.9023 59.8269 38.2343C59.6569 38.5654 59.6858 38.963 59.9025 39.2672L64.9613 46.3421C65.1482 46.6025 65.4494 46.7576 65.7695 46.7576C66.0896 46.7576 66.3918 46.6025 66.5777 46.3421L71.6356 39.2672C71.8523 38.963 71.8811 38.5654 71.7111 38.2343C71.5412 37.9023 71.1992 37.6945 70.8274 37.6945H67.2607V33.7053C71.7599 32.9866 75.2133 29.0898 75.2133 24.3908C75.2133 19.6927 71.7609 15.7959 67.2607 15.0772V9.7072C67.2607 8.8841 66.5936 8.21608 65.7695 8.21608H54.0642V2.37586H51.082V8.21608H40.339C40.0208 3.8471 36.3726 0.387695 31.9241 0.387695H14.811C10.3624 0.387695 6.71417 3.8471 6.39607 8.21608H0.067749V11.1983H6.43981C6.96965 15.3496 10.5175 18.5714 14.81 18.5714H21.2297V22.7466L15.6211 28.3552H0.067749V31.3374H8.18641V53.1147H0.067749V56.097H9.67753C10.5016 56.097 11.1686 55.4289 11.1686 54.6059V31.3374H15.6211ZM43.8898 44.0537L40.7634 39.6827H47.0152L43.8898 44.0537ZM65.7695 44.0537L62.6431 39.6827H68.8949L65.7695 44.0537ZM71.237 24.3908C71.237 27.4048 68.7846 29.8582 65.7695 29.8582C62.7545 29.8582 60.3021 27.4048 60.3021 24.3908C60.3021 21.3767 62.7545 18.9243 65.7695 18.9243C68.7836 18.9243 71.237 21.3767 71.237 24.3908ZM10.3406 10.1257V8.8334C10.3406 6.36908 12.3456 4.36402 14.811 4.36402H31.9241C34.3884 4.36402 36.3944 6.36908 36.3944 8.8334V10.1257C36.3944 12.59 34.3894 14.5951 31.9241 14.5951H14.811C12.3456 14.5951 10.3406 12.591 10.3406 10.1257ZM22.7219 25.4733L27.0958 29.8463L22.7219 34.2202L18.3479 29.8463L22.7219 25.4733ZM56.0226 63.2056C56.0057 63.1142 56.0057 62.4372 56.0226 62.3458C56.0226 62.3458 57.4759 61.4899 57.5236 61.4431C57.9242 61.0544 58.0942 60.3874 57.9004 59.781L57.3367 58.4619C57.0912 57.9847 56.5196 57.6507 55.9411 57.6507C55.8744 57.6507 54.2511 58.0424 54.2511 58.0424C54.1606 57.9827 53.6606 57.4738 53.6199 57.4121C53.6199 57.4121 54.0433 55.7739 54.0443 55.7073C54.0523 55.1476 53.7004 54.5561 53.1427 54.2699L51.7749 53.7062C51.2371 53.5372 50.574 53.7191 50.1923 54.1118C50.1456 54.1605 49.2897 55.6129 49.2897 55.6129C49.1067 55.6486 48.6137 55.6486 48.4308 55.6129C48.4308 55.6129 47.5749 54.1595 47.5281 54.1118C47.2428 53.8175 46.8104 53.6426 46.372 53.6426C46.2179 53.6426 46.0708 53.6655 45.872 53.7321L44.5161 54.2987C44.021 54.5532 43.6671 55.1456 43.6751 55.7063C43.6761 55.7729 44.0986 57.4082 44.0986 57.4082C44.0598 57.4658 43.5409 57.9857 43.4544 58.0394C43.4544 58.0394 41.837 57.6507 41.7704 57.6507C41.1988 57.6507 40.6282 57.9837 40.3549 58.5196L39.7912 59.8725C39.6242 60.4043 39.7982 61.0723 40.2048 61.459C40.2425 61.4948 41.6998 62.4422 41.6998 62.4422C41.7158 62.5217 41.7168 63.1241 41.7018 63.2046C41.7018 63.2046 40.2455 64.0625 40.1978 64.1083C39.7962 64.4969 39.6252 65.165 39.8171 65.7654L40.3837 67.1223C40.6352 67.6084 41.2187 67.9613 41.7893 67.9613C41.8569 67.9603 43.4922 67.5388 43.4922 67.5388C43.5836 67.6005 44.0608 68.0876 44.0996 68.1462C44.0996 68.1462 43.6771 69.7805 43.6761 69.8471C43.6681 70.4068 44.02 70.9982 44.5777 71.2845L45.9346 71.8442C46.4605 72.0162 47.1434 71.8382 47.5281 71.4416C47.5749 71.3929 48.4298 69.9405 48.4298 69.9405C48.6137 69.9048 49.1058 69.9048 49.2897 69.9405C49.2897 69.9405 50.1456 71.3929 50.1913 71.4416C50.4766 71.7358 50.909 71.9108 51.3474 71.9108C51.5015 71.9108 51.6486 71.8879 51.8474 71.8213L53.2063 71.2547C53.7004 70.9982 54.0523 70.4068 54.0443 69.8471C54.0433 69.7805 53.6209 68.1462 53.6209 68.1462C53.6596 68.0886 54.1368 67.6025 54.2292 67.5388C54.2292 67.5388 55.8725 67.9613 55.944 67.9613C56.5007 67.9613 57.0862 67.6084 57.3666 67.0607L57.9302 65.6968C58.0962 65.166 57.9262 64.4989 57.5256 64.1103C57.4759 64.0615 56.0226 63.2056 56.0226 63.2056ZM55.9072 66.2744L54.437 65.8867C53.9151 65.7465 53.2898 66.0656 52.6506 66.7376C52.1457 67.2694 51.921 67.7227 51.9448 68.176C51.9468 68.2357 52.3594 69.8222 52.3594 69.8222L51.3723 70.2348C51.3723 70.2348 50.5303 68.8093 50.4925 68.7675C50.3782 68.6413 50.0312 68.2566 48.8622 68.2566C47.6942 68.2566 47.3462 68.6403 47.222 68.7785C47.1822 68.8212 46.3531 70.2328 46.3531 70.2328L45.364 69.8232C45.364 69.8232 45.7756 68.2228 45.7786 68.1651C45.8014 67.7227 45.5768 67.2694 45.0718 66.7366C44.5191 66.1551 44.0021 65.8598 43.4663 65.8598C43.4643 65.8598 43.4624 65.8598 43.4604 65.8598C43.4007 65.8618 41.8152 66.2734 41.8152 66.2734L41.4046 65.2843C41.4046 65.2843 42.8291 64.4443 42.8709 64.4055C43.2148 64.0943 43.3818 63.5774 43.3818 62.8249C43.3818 62.0823 43.2099 61.5515 42.8699 61.2443C42.8371 61.2155 41.4026 60.285 41.4026 60.285L41.8022 59.3287C41.8022 59.3287 43.5886 59.7234 43.7268 59.6786C43.9872 59.6379 44.4425 59.4729 45.0718 58.8128C45.5768 58.281 45.8014 57.8277 45.7776 57.3724C45.7756 57.3137 45.363 55.7282 45.363 55.7282L46.3521 55.3176C46.3521 55.3176 47.1931 56.7401 47.2309 56.7829C47.3452 56.9091 47.6922 57.2948 48.8622 57.2948C50.0322 57.2948 50.3792 56.9091 50.5034 56.772C50.5422 56.7282 51.3723 55.3176 51.3723 55.3176L52.3614 55.7282C52.3614 55.7282 51.9498 57.3306 51.9468 57.3883C51.924 57.8336 52.1486 58.2879 52.6536 58.8207C53.2729 59.4719 53.7203 59.6448 54.0076 59.6906C54.1428 59.7293 55.9212 59.3287 55.9212 59.3287L56.3198 60.2661C56.3198 60.2661 54.8973 61.1061 54.8545 61.1449C54.7283 61.2592 54.3436 61.6072 54.3436 62.7752C54.3436 63.9433 54.7283 64.2912 54.8853 64.4323C54.9231 64.4651 56.3208 65.2853 56.3208 65.2853L55.9072 66.2744ZM48.8642 58.9381C46.7339 58.9381 45.0022 60.6707 45.0022 62.8011C45.0022 64.9304 46.7349 66.663 48.8642 66.663C50.9935 66.663 52.7262 64.9304 52.7262 62.8011C52.7262 60.6707 50.9935 58.9381 48.8642 58.9381ZM48.8642 65.0139C47.6435 65.0139 46.6504 64.0208 46.6504 62.8011C46.6504 61.5813 47.6435 60.5872 48.8642 60.5872C50.0849 60.5872 51.077 61.5803 51.077 62.8011C51.077 64.0218 50.0849 65.0139 48.8642 65.0139Z" fill="#454545"/>
</svg>
