<svg width="91" height="89" viewBox="0 0 91 89" fill="none" xmlns="http://www.w3.org/2000/svg">
<path fill-rule="evenodd" clip-rule="evenodd" d="M42.8646 58.8103C33.6104 58.7897 26.1421 51.2886 26.1606 42.0261C26.179 32.8088 33.6802 25.359 42.9139 25.3878C52.1846 25.4165 59.62 32.8458 59.6118 42.0754C59.6056 51.342 52.1086 58.8308 42.8646 58.8103Z" fill="#454545"/>
<path fill-rule="evenodd" clip-rule="evenodd" d="M42.6305 68.8339C28.2153 68.84 16.5387 57.2024 16.5202 42.8119C16.5018 28.405 28.1989 16.7304 42.6469 16.7346C57.0579 16.7387 68.7263 28.405 68.714 42.7955C68.7017 57.2065 57.06 68.8277 42.6305 68.8339ZM90.6159 78.3365C89.0557 77.0145 87.514 75.6719 85.9641 74.3376C83.2831 72.0261 80.6062 69.7084 77.9128 67.4133C77.5187 67.0766 77.5413 66.8323 77.8122 66.4238C83.5233 57.8162 85.9477 48.3669 84.7714 38.0945C83.4494 26.5657 78.2043 17.1041 69.1964 9.79797C61.4921 3.54909 52.5909 0.533448 42.4744 0.387695C42.0105 0.410277 41.329 0.447228 40.6474 0.471863C36.6649 0.625826 32.785 1.35254 29.0221 2.64789C20.9524 5.42334 14.2067 10.1182 9.05402 16.9296C0.75229 27.9082 -1.75014 40.1761 1.60012 53.5114C3.97527 62.9627 9.24494 70.624 16.9862 76.528C24.0234 81.8921 32.0213 84.7229 40.8568 85.1274C46.459 85.384 51.9032 84.5095 57.1729 82.5921C60.9768 81.2105 64.5036 79.3075 67.7594 76.9016C68.053 76.684 68.2726 76.4931 68.6606 76.8256C71.1035 78.9072 73.571 80.9601 76.0283 83.0232C78.0483 84.7209 80.0642 86.4227 82.0842 88.1184C82.3531 88.3462 82.5707 88.5741 82.93 88.143C85.4899 85.0699 88.0765 82.0152 90.6651 78.9647C90.8889 78.6999 90.8848 78.5664 90.6159 78.3365Z" fill="#454545"/>
</svg>
