<svg width="88" height="57" viewBox="0 0 88 57" fill="none" xmlns="http://www.w3.org/2000/svg">
<path d="M60.1773 0.564945H27.8373C20.4583 0.561056 13.38 3.48863 8.15944 8.70364C2.93893 13.9187 0.00389371 20.9939 3.87134e-06 28.3729C-0.00388597 35.752 2.92369 42.8303 8.1387 48.0508C13.3537 53.2714 20.429 56.2064 27.808 56.2103H60.1773C67.5564 56.2103 74.6332 53.279 79.8509 48.0612C85.0687 42.8434 88 35.7666 88 28.3876C88 21.0086 85.0687 13.9318 79.8509 8.71402C74.6332 3.49625 67.5564 0.564945 60.1773 0.564945ZM59.4697 46.4056H28.5487C23.8329 46.3105 19.3425 44.3704 16.0411 41.0017C12.7397 37.633 10.8905 33.1043 10.8905 28.3876C10.8905 23.6709 12.7397 19.1422 16.0411 15.7735C19.3425 12.4049 23.8329 10.4648 28.5487 10.3696H59.4697C64.2483 10.3696 68.8313 12.2679 72.2103 15.647C75.5893 19.026 77.4877 23.6089 77.4877 28.3876C77.4877 33.1663 75.5893 37.7492 72.2103 41.1283C68.8313 44.5073 64.2483 46.4056 59.4697 46.4056Z" fill="#454545"/>
</svg>
