<svg width="67" height="89" viewBox="0 0 67 89" fill="none" xmlns="http://www.w3.org/2000/svg">
<path d="M66.1605 4.05436V84.721C66.1605 85.6935 65.7742 86.6261 65.0866 87.3138C64.3989 88.0014 63.4663 88.3877 62.4939 88.3877H49.6605V26.0544C49.6605 23.022 47.1929 20.5544 44.1605 20.5544H36.8272V4.05436C36.8272 3.0819 37.2135 2.14927 37.9011 1.46164C38.5888 0.774004 39.5214 0.387695 40.4939 0.387695L62.4939 0.387695C63.4663 0.387695 64.3989 0.774004 65.0866 1.46164C65.7742 2.14927 66.1605 3.0819 66.1605 4.05436ZM44.1605 22.3877H22.1605C21.1881 22.3877 20.2554 22.774 19.5678 23.4616C18.8802 24.1493 18.4939 25.0819 18.4939 26.0544V42.5544H25.8272C28.8595 42.5544 31.3272 45.022 31.3272 48.0544V88.3877H47.8272V26.0544C47.8272 25.0819 47.4409 24.1493 46.7532 23.4616C46.0656 22.774 45.133 22.3877 44.1605 22.3877ZM25.8272 44.3877H3.82719C2.85473 44.3877 1.9221 44.774 1.23446 45.4616C0.546831 46.1493 0.160522 47.0819 0.160522 48.0544V84.721C0.160522 85.6935 0.546831 86.6261 1.23446 87.3138C1.9221 88.0014 2.85473 88.3877 3.82719 88.3877H29.4939V48.0544C29.4939 47.0819 29.1075 46.1493 28.4199 45.4616C27.7323 44.774 26.7997 44.3877 25.8272 44.3877Z" fill="#454545"/>
</svg>
