<svg width="89" height="79" viewBox="0 0 89 79" fill="none" xmlns="http://www.w3.org/2000/svg">
<path d="M53.0849 39.4022C53.0849 41.576 52.2216 43.6608 50.6848 45.1983C49.1481 46.7357 47.0637 47.5999 44.8899 47.6009C42.7155 47.6009 40.6301 46.7371 39.0925 45.1996C37.555 43.662 36.6912 41.5767 36.6912 39.4022C36.6912 37.2284 37.5545 35.1436 39.0912 33.6062C40.628 32.0688 42.7124 31.2045 44.8862 31.2036C47.0606 31.2036 49.146 32.0674 50.6835 33.6049C52.2211 35.1424 53.0849 37.2278 53.0849 39.4022ZM62.7942 0.205566C57.8589 0.205566 51.4019 3.72557 44.8715 9.81957C38.3449 3.75857 31.8842 0.2789 26.9525 0.2789C25.4492 0.2789 24.0815 0.6199 22.8972 1.29823C17.8555 4.2059 16.7262 13.2662 19.3295 24.6366C8.1682 28.0832 0.908203 33.5942 0.908203 39.4022C0.908203 45.2322 8.20487 50.7579 19.3992 54.1789C16.8179 65.5932 17.9692 74.6682 23.0219 77.5722C24.1952 78.2579 25.5519 78.5806 27.0625 78.5806C31.9942 78.5806 38.4549 75.0606 44.9852 68.9592C51.5119 75.0239 57.9725 78.5036 62.9042 78.5036C64.4075 78.5036 65.7752 78.1736 66.9595 77.4952C71.9975 74.5912 73.1305 65.5309 70.5272 54.1569C81.6482 50.7396 88.9082 45.2176 88.9082 39.4022C88.9082 33.5722 81.6115 28.0466 70.4172 24.6182C72.9985 13.2149 71.8472 4.13257 66.7945 1.2249C65.6285 0.550233 64.2719 0.209233 62.7905 0.205566H62.7942ZM62.7759 4.20223V4.22423C63.6009 4.22423 64.2645 4.38557 64.8219 4.6899C67.2639 6.09057 68.3235 11.4182 67.4985 18.2712C67.3005 19.9579 66.9779 21.7362 66.5819 23.5512C63.0619 22.6859 59.2265 22.0222 55.1895 21.5932C52.7695 18.2749 50.2579 15.2609 47.7279 12.6209C53.5652 7.19423 59.0469 4.2169 62.7795 4.2059L62.7759 4.20223ZM26.9525 4.27557C30.6632 4.27557 36.1705 7.23823 42.0225 12.6356C39.5072 15.2756 36.9992 18.2712 34.6159 21.5896C30.5569 22.0186 26.7179 22.6822 23.2015 23.5622C22.7909 21.7656 22.4865 20.0276 22.2702 18.3556C21.4269 11.5062 22.4682 6.18223 24.8882 4.76323C25.5849 4.43323 26.3549 4.29757 26.9525 4.27923V4.27557ZM44.8532 15.4589C46.5215 17.1749 48.1899 19.0962 49.8399 21.1936C48.2265 21.1202 46.5765 21.0689 44.9082 21.0689C43.2215 21.0689 41.5532 21.1056 39.9215 21.1936C41.5349 19.0962 43.2032 17.1749 44.8532 15.4552V15.4589ZM44.9082 25.0876C47.6215 25.0876 50.3239 25.2122 52.9822 25.4286C54.4709 27.5626 55.9229 29.8396 57.3199 32.2486C58.6839 34.5952 59.9232 36.9786 61.0525 39.3839C59.9232 41.7856 58.6839 44.1872 57.3382 46.5339C55.9449 48.9539 54.5039 51.2566 53.0115 53.3906C50.3422 53.6216 47.6362 53.7499 44.9082 53.7499C42.1949 53.7499 39.4925 53.6216 36.8342 53.4089C35.3455 51.2749 33.8935 48.9942 32.4965 46.5889C31.1325 44.2422 29.8932 41.8589 28.7639 39.4536C29.8749 37.0446 31.1325 34.6392 32.4782 32.2889C33.8715 29.8689 35.3125 27.5736 36.8049 25.4396C39.4742 25.2049 42.1802 25.0802 44.9082 25.0802V25.0876ZM31.5799 26.0189C30.6999 27.4012 29.8199 28.8166 28.9985 30.2722C28.1735 31.7022 27.4035 33.1396 26.6702 34.5769C25.6985 32.1716 24.8735 29.7736 24.1915 27.4379C26.5382 26.8879 29.0132 26.4002 31.5799 26.0226V26.0189ZM58.1999 26.0189C60.7482 26.3966 63.2049 26.8622 65.5552 27.4379C64.8952 29.7552 64.0702 32.1386 63.1352 34.5256C62.4019 33.0956 61.6319 31.6546 60.7885 30.2209C59.9635 28.7836 59.0835 27.3829 58.2035 26.0189H58.1999ZM69.4309 28.4939C71.2055 29.0439 72.8922 29.6562 74.4725 30.3199C80.8232 33.0332 84.9299 36.5826 84.9299 39.3986C84.9115 42.2146 80.8049 45.7786 74.4542 48.4736C72.9142 49.1336 71.2275 49.7276 69.4859 50.2812C68.4592 46.7686 67.1172 43.1092 65.4525 39.3546C67.1025 35.6256 68.4225 31.9846 69.4309 28.4866V28.4939ZM20.3159 28.5086C21.3352 32.0286 22.6809 35.6842 24.3492 39.4352C22.6992 43.1642 21.3719 46.8052 20.3672 50.3032C18.5925 49.7532 16.9059 49.1372 15.3439 48.4699C8.9932 45.7676 4.88654 42.2146 4.88654 39.3986C4.88654 36.5826 8.9932 33.0112 15.3439 30.3199C16.8839 29.6599 18.5705 29.0659 20.3159 28.5086ZM63.1352 44.2019C64.1069 46.6109 64.9319 49.0126 65.6139 51.3446C63.2672 51.9202 60.7885 52.4079 58.2219 52.7746C59.1019 51.3996 59.9819 49.9806 60.8069 48.5286C61.6319 47.0986 62.4019 45.6392 63.1389 44.2019H63.1352ZM26.6702 44.2752C27.4035 45.7126 28.1735 47.1462 29.0169 48.5836C29.8602 50.0136 30.7219 51.4142 31.6019 52.7746C29.0535 52.4006 26.5969 51.9312 24.2465 51.3592C24.9065 49.0492 25.7352 46.6586 26.6665 44.2716L26.6702 44.2752ZM66.6149 55.2276C67.0255 57.0352 67.3482 58.7769 67.5462 60.4452C68.3895 67.2946 67.3482 72.6186 64.9282 74.0412C64.3892 74.3712 63.6889 74.5106 62.8639 74.5106C59.1532 74.5106 53.6459 71.5516 47.7939 66.1506C50.3092 63.5106 52.8172 60.5186 55.2005 57.2039C59.2595 56.7712 63.0985 56.1039 66.6149 55.2239V55.2276ZM23.2382 55.2642C26.7582 56.1222 30.5935 56.7859 34.6305 57.2149C37.0505 60.5332 39.5622 63.5472 42.0922 66.1836C36.2439 71.6212 30.7549 74.5986 27.0222 74.5986C26.2155 74.5802 25.5335 74.4152 24.9945 74.1146C22.5525 72.7212 21.4929 67.3899 22.3179 60.5369C22.5159 58.8502 22.8385 57.0756 23.2345 55.2642H23.2382ZM39.9582 57.6109C41.5715 57.6842 43.2215 57.7356 44.8899 57.7356C46.5765 57.7356 48.2449 57.6989 49.8765 57.6109C48.2632 59.7082 46.5949 61.6259 44.9449 63.3492C43.2765 61.6259 41.6082 59.7082 39.9582 57.6109Z" fill="#454545"/>
</svg>
