<svg width="87" height="89" viewBox="0 0 87 89" fill="none" xmlns="http://www.w3.org/2000/svg">
<path d="M23.4685 42.2651V80.8453H63.1032V42.2651H23.4685ZM43.2792 60.2203C46.5365 60.2203 49.1931 62.8768 49.1931 66.1341C49.1931 68.9242 47.2306 71.2603 44.6142 71.8744V73.4763C44.6142 74.2239 44.0268 74.8113 43.2792 74.8113C42.5449 74.8113 41.9443 74.2239 41.9443 73.4763V71.8744C39.3411 71.2603 37.3787 68.9242 37.3787 66.1341C37.3787 65.3865 37.9794 64.7991 38.7136 64.7991C39.4479 64.7991 40.0486 65.3865 40.0486 66.1341C40.0486 67.9096 41.5037 69.3646 43.2792 69.3646C45.068 69.3646 46.5231 67.9096 46.5231 66.1341C46.5231 64.3453 45.068 62.8902 43.2792 62.8902C40.0219 62.8902 37.3787 60.247 37.3787 56.9897C37.3787 54.1996 39.3411 51.8635 41.9443 51.2494V49.6341C41.9443 48.8999 42.5449 48.2992 43.2792 48.2992C44.0268 48.2992 44.6142 48.8999 44.6142 49.6341V51.2494C47.2306 51.8635 49.1931 54.1996 49.1931 56.9897C49.1931 57.7239 48.5923 58.3247 47.8581 58.3247C47.1105 58.3247 46.5231 57.7239 46.5231 56.9897C46.5231 55.2008 45.068 53.7591 43.2792 53.7591C41.5037 53.7591 40.0486 55.2008 40.0486 56.9897C40.0486 58.7785 41.5037 60.2203 43.2792 60.2203Z" fill="#454545"/>
<path d="M29.5796 23.3088H56.9859V7.93274H29.5796V23.3088ZM50.0382 12.2154C51.919 12.2154 53.4436 13.7401 53.4436 15.6208C53.4436 17.5016 51.919 19.0263 50.0382 19.0263C48.1575 19.0263 46.6328 17.5016 46.6328 15.6208C46.6328 13.7401 48.1574 12.2154 50.0382 12.2154ZM36.5275 12.2154C38.4083 12.2154 39.933 13.7401 39.933 15.6208C39.933 17.5016 38.4083 19.0263 36.5275 19.0263C34.6468 19.0263 33.122 17.5016 33.122 15.6208C33.122 13.7401 34.6468 12.2154 36.5275 12.2154Z" fill="#454545"/>
<path d="M80.244 38.8877C76.7464 38.8877 73.9163 41.7312 73.9163 45.2154V46.3501H70.6457V38.7008C70.6457 36.5115 68.8702 34.7227 66.6809 34.7227H54.6452V30.8513H59.8593C62.4357 30.8513 64.5316 28.7554 64.5316 26.179V22.3343C68.3629 21.7469 71.3532 18.6098 71.7404 14.7251H74.6772C76.1323 14.7251 77.3205 13.5503 77.3205 12.0953V2.14985C77.3205 1.66928 76.9333 1.2821 76.4527 1.2821C75.9722 1.2821 75.585 1.66929 75.585 2.14985V12.0952C75.585 12.5892 75.1711 12.9896 74.6772 12.9896H71.7404C71.3532 9.11833 68.3629 5.98114 64.5316 5.39376V5.06003C64.5316 2.48358 62.4357 0.387695 59.8593 0.387695H26.7124C24.136 0.387695 22.0401 2.48358 22.0401 5.06003V5.39376C18.2088 5.98114 15.2185 9.10497 14.818 12.9896H11.8945C11.3872 12.9896 10.9867 12.5892 10.9867 12.0952V2.14985C10.9867 1.66928 10.5995 1.2821 10.119 1.2821C9.63842 1.2821 9.2513 1.66928 9.2513 2.14985V12.0952C9.2513 13.5503 10.4393 14.7251 11.8945 14.7251H14.818C15.2185 18.6098 18.2088 21.7469 22.0401 22.3343V26.179C22.0401 28.7554 24.136 30.8513 26.7124 30.8513H31.921V34.7227H19.8908C17.7015 34.7227 15.926 36.5115 15.926 38.7008V46.3501H12.6554V45.2154C12.6554 41.7312 9.81195 38.8877 6.32774 38.8877C2.83008 38.8877 0 41.7312 0 45.2154V78.9497C0 79.6839 0.587379 80.2846 1.33495 80.2846H11.3204C12.0547 80.2846 12.6554 79.6839 12.6554 78.9497V54.3331H15.926V84.4229C15.926 86.6123 17.7015 88.3877 19.8908 88.3877H66.6809C68.8702 88.3877 70.6457 86.6123 70.6457 84.4229V54.3331H73.9163V78.9497C73.9163 79.6839 74.517 80.2846 75.2512 80.2846H85.2367C85.9709 80.2846 86.5717 79.6839 86.5717 78.9497V45.2154C86.5717 41.7312 83.7282 38.8877 80.244 38.8877ZM15.9261 52.5976H12.6554V48.0855H15.9261V52.5976ZM28.7121 25.0441C28.233 25.0441 27.8445 24.6556 27.8445 24.1765V7.06522C27.8445 6.58612 28.233 6.19763 28.7121 6.19763H57.8535C58.3326 6.19763 58.7211 6.58613 58.7211 7.06522V24.1765C58.7211 24.6556 58.3326 25.044 57.8535 25.044H28.7121V25.0441ZM52.91 30.8513V34.7227H33.6562V30.8513H52.91ZM64.8386 81.7129C64.8386 82.1936 64.4515 82.5807 63.971 82.5807H22.6008C22.1202 82.5807 21.7331 82.1936 21.7331 81.7129V41.3975C21.7331 40.9302 22.1202 40.5297 22.6008 40.5297H63.971C64.4515 40.5297 64.8386 40.9302 64.8386 41.3975V81.7129ZM73.9163 52.5976H70.6457V48.0855H73.9163V52.5976Z" fill="#454545"/>
</svg>
