<svg width="126" height="88" viewBox="0 0 126 88" fill="none" xmlns="http://www.w3.org/2000/svg">
<path d="M52.319 9.59769C56.3737 5.37285 62.0187 2.75269 68.262 2.75269C76.5612 2.75269 83.802 7.3805 87.6579 14.2506C91.0088 12.7533 94.7178 11.9205 98.6203 11.9205C113.589 11.9205 125.725 24.1617 125.725 39.2612C125.725 54.3624 113.589 66.6035 98.6203 66.6035C96.7935 66.6035 95.008 66.4209 93.2815 66.0716C89.8859 72.1286 83.4152 76.2209 75.9881 76.2209C72.879 76.2209 69.9383 75.5028 67.3199 74.2258C63.8777 82.3227 55.8579 88 46.5109 88C36.7771 88 28.4814 81.8409 25.2971 73.2032C23.9056 73.4987 22.4639 73.6527 20.9845 73.6527C9.39531 73.6527 0 64.1607 0 52.4497C0 44.6018 4.22126 37.7496 10.4932 34.0835C9.20189 31.1123 8.48372 27.8331 8.48372 24.3855C8.48372 10.9176 19.4175 0 32.9033 0C40.8211 0 47.8577 3.76457 52.319 9.59769Z" fill="#454545"/>
<path d="M18.2101 45.6347C18.1313 45.8406 18.2387 45.8836 18.2638 45.9194C18.5002 46.0913 18.7402 46.2149 18.982 46.3528C20.2643 47.0334 21.475 47.2322 22.7412 47.2322C25.3201 47.2322 26.9212 45.8603 26.9212 43.6521V43.6091C26.9212 41.5674 25.1142 40.826 23.4181 40.2905L23.1978 40.2188C21.9191 39.8033 20.8159 39.4451 20.8159 38.6034V38.5586C20.8159 37.8387 21.4606 37.3085 22.46 37.3085C23.5704 37.3085 24.8885 37.6775 25.7374 38.1467C25.7374 38.1467 25.9863 38.3079 26.0777 38.0661C26.1278 37.9372 26.5577 36.7802 26.6024 36.6548C26.6508 36.5187 26.5648 36.4184 26.4771 36.3647C25.5082 35.7755 24.1685 35.3725 22.7823 35.3725L22.5244 35.3743C20.164 35.3743 18.5163 36.7999 18.5163 38.8434V38.8864C18.5163 41.0409 20.3341 41.7393 22.0373 42.2265L22.3113 42.3107C23.5525 42.6921 24.6216 43.0199 24.6216 43.8939V43.9368C24.6216 44.7356 23.9268 45.3302 22.8056 45.3302C22.3704 45.3302 20.9824 45.3212 19.4834 44.3738C19.3025 44.2682 19.1969 44.1911 19.0572 44.107C18.9837 44.0604 18.7993 43.9798 18.7187 44.2234L18.2101 45.6347Z" fill="white"/>
<path d="M55.9649 45.6347C55.8861 45.8406 55.9936 45.8836 56.0187 45.9194C56.2551 46.0913 56.4951 46.2149 56.7368 46.3528C58.0192 47.0334 59.2298 47.2322 60.496 47.2322C63.075 47.2322 64.6761 45.8603 64.6761 43.6521V43.6091C64.6761 41.5674 62.869 40.826 61.173 40.2905L60.9527 40.2188C59.674 39.8033 58.5708 39.4451 58.5708 38.6034V38.5586C58.5708 37.8387 59.2155 37.3085 60.2149 37.3085C61.3252 37.3085 62.6434 37.6775 63.4923 38.1467C63.4923 38.1467 63.7412 38.3079 63.8326 38.0661C63.8827 37.9372 64.3125 36.7802 64.3573 36.6548C64.4057 36.5187 64.3197 36.4184 64.232 36.3647C63.263 35.7755 61.9234 35.3725 60.5372 35.3725L60.2793 35.3743C57.9189 35.3743 56.2712 36.7999 56.2712 38.8434V38.8864C56.2712 41.0409 58.089 41.7393 59.7922 42.2265L60.0662 42.3107C61.3073 42.6921 62.3783 43.0199 62.3783 43.8939V43.9368C62.3783 44.7356 61.6816 45.3302 60.5605 45.3302C60.1253 45.3302 58.7373 45.3212 57.2383 44.3738C57.0574 44.2682 56.95 44.1947 56.8138 44.107C56.7673 44.0765 56.5488 43.9924 56.4736 44.2234L55.9649 45.6347Z" fill="white"/>
<path d="M81.7393 41.309C81.7393 42.5572 81.5064 43.5405 81.048 44.2354C80.5949 44.9231 79.9089 45.258 78.9526 45.258C77.9944 45.258 77.3121 44.9249 76.8661 44.2354C76.4148 43.5423 76.1855 42.5572 76.1855 41.309C76.1855 40.0625 76.4148 39.081 76.8661 38.3933C77.3121 37.7127 77.9944 37.3814 78.9526 37.3814C79.9089 37.3814 80.5949 37.7127 81.0498 38.3933C81.5064 39.081 81.7393 40.0625 81.7393 41.309ZM83.892 38.9951C83.6807 38.2805 83.3511 37.6501 82.9123 37.1253C82.4736 36.5988 81.9184 36.1761 81.2593 35.8681C80.602 35.5618 79.8247 35.406 78.9526 35.406C78.0786 35.406 77.3013 35.5618 76.644 35.8681C75.985 36.1761 75.4298 36.5988 74.9892 37.1253C74.5522 37.6518 74.2227 38.2823 74.0095 38.9951C73.8 39.7061 73.6943 40.4833 73.6943 41.309C73.6943 42.1346 73.8 42.9136 74.0095 43.6229C74.2227 44.3357 74.5504 44.9661 74.991 45.4926C75.4298 46.0192 75.9867 46.44 76.644 46.7391C77.3031 47.0382 78.0786 47.1904 78.9526 47.1904C79.8247 47.1904 80.6002 47.0382 81.2593 46.7391C81.9166 46.44 82.4736 46.0192 82.9123 45.4926C83.3511 44.9679 83.6807 44.3374 83.892 43.6229C84.1033 42.9119 84.209 42.1328 84.209 41.309C84.209 40.4851 84.1033 39.7061 83.892 38.9951Z" fill="white"/>
<path d="M101.57 44.9249C101.498 44.7153 101.296 44.7941 101.296 44.7941C100.982 44.9141 100.649 45.0252 100.295 45.0807C99.9347 45.1362 99.5389 45.1649 99.1145 45.1649C98.0721 45.1649 97.2447 44.855 96.6519 44.2425C96.0573 43.63 95.7242 42.6396 95.7278 41.3C95.7313 40.0804 96.0251 39.1634 96.5534 38.4649C97.0781 37.77 97.8769 37.4136 98.9425 37.4136C99.8308 37.4136 100.508 37.5157 101.217 37.7396C101.217 37.7396 101.387 37.813 101.468 37.591C101.656 37.068 101.796 36.6937 101.996 36.1188C102.053 35.9558 101.914 35.886 101.864 35.8663C101.584 35.757 100.925 35.5797 100.427 35.5045C99.9616 35.4329 99.4171 35.3953 98.8118 35.3953C97.9074 35.3953 97.1014 35.5493 96.4119 35.8573C95.7242 36.1636 95.1403 36.5862 94.6783 37.1128C94.2162 37.6393 93.8652 38.2697 93.6306 38.9825C93.3977 39.6935 93.2795 40.4744 93.2795 41.3C93.2795 43.0856 93.7613 44.5291 94.7123 45.5857C95.6651 46.646 97.0961 47.1851 98.9622 47.1851C100.065 47.1851 101.197 46.9612 102.01 46.6406C102.01 46.6406 102.166 46.5654 102.098 46.3845L101.57 44.9249Z" fill="white"/>
<path d="M105.336 40.1132C105.438 39.4201 105.63 38.8435 105.926 38.3939C106.371 37.7116 107.052 37.3373 108.008 37.3373C108.965 37.3373 109.597 37.7134 110.05 38.3939C110.351 38.8435 110.482 39.4452 110.534 40.1132H105.336ZM112.584 38.5891C112.402 37.8996 111.948 37.2029 111.651 36.8842C111.182 36.3791 110.723 36.0263 110.269 35.8293C109.674 35.575 108.961 35.4066 108.18 35.4066C107.27 35.4066 106.445 35.5589 105.775 35.8741C105.103 36.1893 104.539 36.6191 104.097 37.1546C103.655 37.6883 103.321 38.3241 103.11 39.0458C102.897 39.764 102.79 40.5466 102.79 41.3723C102.79 42.2122 102.901 42.9949 103.121 43.6987C103.343 44.4079 103.698 45.033 104.178 45.5506C104.656 46.0717 105.272 46.4801 106.01 46.7648C106.742 47.0478 107.632 47.1946 108.655 47.1929C110.759 47.1857 111.868 46.7165 112.325 46.4639C112.405 46.4192 112.482 46.3404 112.385 46.1147L111.909 44.7805C111.837 44.5817 111.635 44.6551 111.635 44.6551C111.114 44.8485 110.372 45.196 108.644 45.1924C107.514 45.1906 106.676 44.8575 106.151 44.3363C105.612 43.8026 105.349 43.0182 105.302 41.9114L112.59 41.9185C112.59 41.9185 112.781 41.9149 112.801 41.7287C112.808 41.6499 113.052 40.2314 112.584 38.5891Z" fill="white"/>
<path d="M46.9752 40.1132C47.0791 39.4201 47.2689 38.8435 47.5644 38.3939C48.0104 37.7116 48.6909 37.3373 49.6473 37.3373C50.6037 37.3373 51.2359 37.7134 51.6908 38.3939C51.9898 38.8435 52.1206 39.4452 52.1725 40.1132H46.9752ZM54.2214 38.5891C54.0387 37.8996 53.5874 37.2029 53.2901 36.8842C52.8208 36.3791 52.3624 36.0263 51.9075 35.8293C51.3129 35.575 50.6001 35.4066 49.8192 35.4066C48.9112 35.4066 48.0838 35.5589 47.414 35.8741C46.7424 36.1893 46.1782 36.6191 45.7359 37.1546C45.2935 37.6883 44.9604 38.3241 44.749 39.0458C44.5377 39.764 44.4285 40.5466 44.4285 41.3723C44.4285 42.2122 44.5395 42.9949 44.7598 43.6987C44.9819 44.4079 45.3365 45.033 45.8165 45.5506C46.2946 46.0717 46.9107 46.4801 47.6486 46.7648C48.3811 47.0478 49.2712 47.1946 50.2938 47.1929C52.3982 47.1857 53.5068 46.7165 53.9635 46.4639C54.0441 46.4192 54.1211 46.3404 54.0244 46.1147L53.5498 44.7805C53.4763 44.5817 53.274 44.6551 53.274 44.6551C52.7528 44.8485 52.0131 45.196 50.2813 45.1924C49.153 45.1906 48.3148 44.8575 47.7901 44.3363C47.251 43.8026 46.9877 43.0182 46.9412 41.9114L54.2285 41.9185C54.2285 41.9185 54.4202 41.9149 54.4399 41.7287C54.447 41.6499 54.6906 40.2314 54.2214 38.5891Z" fill="white"/>
<path d="M31.2235 44.8849C30.9387 44.6575 30.8993 44.6001 30.8026 44.4533C30.6593 44.2294 30.5859 43.9106 30.5859 43.5059C30.5859 42.8647 30.7972 42.4044 31.236 42.0946C31.2306 42.0964 31.8628 41.5484 33.3493 41.5681C34.3934 41.5824 35.3265 41.7364 35.3265 41.7364V45.0497H35.3283C35.3283 45.0497 34.4024 45.2485 33.3601 45.3112C31.8772 45.4007 31.2181 44.8831 31.2235 44.8849ZM34.123 39.7646C33.8275 39.7431 33.4442 39.7306 32.9858 39.7306C32.3607 39.7306 31.7572 39.8094 31.1912 39.9616C30.6217 40.1138 30.1095 40.352 29.6689 40.6672C29.2266 40.9842 28.8702 41.389 28.6123 41.869C28.3544 42.3489 28.2236 42.9149 28.2236 43.5489C28.2236 44.1936 28.3347 44.7542 28.5567 45.2127C28.7788 45.6729 29.0994 46.0562 29.5077 46.3517C29.9125 46.6472 30.4122 46.8639 30.9924 46.9946C31.5637 47.1254 32.2121 47.1917 32.9213 47.1917C33.6681 47.1917 34.4131 47.1308 35.1349 47.0072C35.8495 46.8854 36.7271 46.7081 36.9706 46.6526C37.2124 46.5953 37.481 46.5218 37.481 46.5218C37.6619 46.4771 37.6476 46.2836 37.6476 46.2836L37.644 39.6195C37.644 38.1581 37.2536 37.0746 36.4853 36.403C35.7205 35.7332 34.594 35.3947 33.138 35.3947C32.5918 35.3947 31.7124 35.4699 31.1859 35.5756C31.1859 35.5756 29.5937 35.8836 28.9382 36.3958C28.9382 36.3958 28.7949 36.4854 28.8737 36.686L29.3895 38.0721C29.454 38.2512 29.6277 38.1903 29.6277 38.1903C29.6277 38.1903 29.6833 38.1689 29.7477 38.1312C31.15 37.3683 32.9231 37.3916 32.9231 37.3916C33.7111 37.3916 34.3164 37.5492 34.7248 37.8626C35.1224 38.1671 35.3247 38.6273 35.3247 39.598V39.9061C34.6979 39.8165 34.123 39.7646 34.123 39.7646Z" fill="white"/>
<path d="M92.8988 36.0096C92.9543 35.8449 92.8379 35.7661 92.7895 35.7481C92.6659 35.6998 92.0463 35.569 91.5681 35.5386C90.6529 35.4831 90.1443 35.6371 89.6894 35.8413C89.2381 36.0454 88.7366 36.375 88.4572 36.7493V35.8628C88.4572 35.7392 88.3694 35.6407 88.2477 35.6407H86.3797C86.2579 35.6407 86.1702 35.7392 86.1702 35.8628V46.732C86.1702 46.8538 86.2705 46.9541 86.3922 46.9541H88.3068C88.4286 46.9541 88.5271 46.8538 88.5271 46.732V41.3019C88.5271 40.573 88.6076 39.8458 88.7688 39.3891C88.9264 38.9378 89.1413 38.5761 89.4064 38.3164C89.6733 38.0585 89.9759 37.8776 90.3073 37.7755C90.6457 37.6716 91.0201 37.6376 91.2851 37.6376C91.6666 37.6376 92.0857 37.7361 92.0857 37.7361C92.2254 37.7522 92.3042 37.6662 92.3507 37.5391C92.4761 37.206 92.8307 36.2084 92.8988 36.0096Z" fill="white"/>
<path d="M74.9282 30.9722C74.6953 30.9005 74.484 30.8522 74.2082 30.8003C73.9288 30.7501 73.5957 30.725 73.2178 30.725C71.8997 30.725 70.8609 31.0976 70.132 31.8318C69.4067 32.5625 68.9142 33.6747 68.667 35.1379L68.5775 35.6304H66.9226C66.9226 35.6304 66.722 35.6233 66.679 35.8418L66.4086 37.3587C66.3889 37.502 66.4516 37.5933 66.645 37.5933H68.2551L66.6217 46.7128C66.4946 47.4471 66.3477 48.0507 66.1848 48.5091C66.0254 48.9605 65.8695 49.2989 65.6761 49.5461C65.4899 49.7825 65.3144 49.958 65.0099 50.0601C64.7592 50.1443 64.469 50.1837 64.152 50.1837C63.9765 50.1837 63.7419 50.155 63.5682 50.1192C63.3962 50.0852 63.3049 50.0476 63.1742 49.992C63.1742 49.992 62.9861 49.9204 62.9109 50.1085C62.8518 50.2643 62.422 51.4445 62.37 51.5896C62.3199 51.7346 62.3915 51.8475 62.4829 51.8815C62.6978 51.9567 62.8572 52.0069 63.1491 52.0767C63.5538 52.1716 63.8959 52.177 64.2165 52.177C64.8863 52.177 65.4988 52.0821 66.0057 51.8994C66.5143 51.7149 66.9584 51.3944 67.3524 50.9609C67.7769 50.4917 68.0438 50.001 68.2981 49.3294C68.5506 48.6667 68.7673 47.8429 68.9392 46.883L70.5815 37.5933H72.9814C72.9814 37.5933 73.1838 37.6005 73.225 37.3802L73.4972 35.8651C73.5151 35.72 73.4542 35.6304 73.259 35.6304H70.929C70.9415 35.5785 71.0472 34.7582 71.314 33.9863C71.4286 33.6586 71.6436 33.3918 71.8244 33.2091C72.0035 33.03 72.2095 32.9028 72.4352 32.8294C72.6662 32.7542 72.9295 32.7184 73.2178 32.7184C73.4363 32.7184 73.653 32.7434 73.816 32.7775C74.0416 32.8258 74.1294 32.8509 74.1885 32.8688C74.4267 32.9404 74.4589 32.8706 74.5055 32.756L75.0625 31.2265C75.1198 31.0617 74.9783 30.9919 74.9282 30.9722Z" fill="white"/>
<path d="M42.3732 46.7326C42.3732 46.8544 42.2854 46.9529 42.1636 46.9529H40.2312C40.1094 46.9529 40.0234 46.8544 40.0234 46.7326V31.18C40.0234 31.0582 40.1094 30.9597 40.2312 30.9597H42.1636C42.2854 30.9597 42.3732 31.0582 42.3732 31.18V46.7326Z" fill="white"/>
</svg>
