<svg width="88" height="45" viewBox="0 0 88 45" fill="none" xmlns="http://www.w3.org/2000/svg">
<path d="M0 0.622314V44.153H44.4767L88 0.622314H0ZM11.968 8.71832H11.9863C15.1507 8.72198 19.008 9.61665 21.7983 11.0393L18.7917 16.2826C15.73 14.8013 14.19 14.662 12.4483 14.5703C9.85233 14.431 8.547 15.3586 8.52867 16.3596C8.503 17.577 10.9817 18.6806 13.3137 19.4323C16.8483 20.5543 21.3437 22.054 22.0293 26.399L28.49 9.32332H35.992L43.56 29.7686L43.5343 9.32698H52.2243C60.5 9.32698 64.3903 12.1283 64.3903 18.5633C64.3903 24.3383 60.3937 27.7813 53.625 27.7813H50.8273L50.7907 35.4593L37.6347 35.4483L36.718 32.119C35.3613 32.5663 33.8323 32.812 32.208 32.812C30.536 32.812 28.963 32.5516 27.577 32.0786L26.2643 35.4483L18.931 35.4703L19.261 33.7763C19.1547 33.868 19.052 33.9596 18.942 34.0476C16.9803 35.6243 14.5127 36.354 11.473 36.409L10.692 36.4163C7.37317 36.4501 4.10572 35.5955 1.22833 33.9413L3.905 28.632C6.80167 30.3443 8.62033 30.7293 11.077 30.678C12.3493 30.6523 13.2697 30.4213 13.8673 29.8016C14.2192 29.4372 14.4231 28.955 14.4393 28.4486C14.465 27.07 12.496 26.421 10.0943 25.6766C8.14733 25.0753 5.93267 24.2503 4.20567 22.9816C2.156 21.4783 1.18067 19.5936 1.22833 16.9316C1.24079 15.0435 1.98468 13.2337 3.30367 11.8826C5.20667 9.91365 8.27933 8.71832 11.968 8.71832ZM50.8237 14.8416V21.823H52.734C55.2787 21.823 57.3063 20.9796 57.31 18.2883C57.31 15.6886 55.2787 14.8416 52.734 14.8416H50.8237ZM32.1713 17.654L29.4287 26.3146C30.2463 26.6263 31.1923 26.8023 32.2043 26.8023C33.187 26.8023 34.111 26.63 34.925 26.3403L32.2263 17.6503L32.1713 17.654Z" fill="#454545"/>
</svg>
