<svg width="89" height="87" viewBox="0 0 89 87" fill="none" xmlns="http://www.w3.org/2000/svg">
<path d="M42.8919 0.0255127V8.10318H35.6612V10.2298H42.8919V18.3075H45.4439V10.2298H52.6672V8.10318H45.4439V0.0255127H44.1679H42.8919ZM65.0019 8.31951L64.9945 14.2705V20.2215H54.1522V23.6205H64.9945V35.3098H68.8189L68.8592 29.5092L68.9325 23.7305L74.3042 23.6572L79.6575 23.6205V20.2215H68.8299V8.31951H66.9159H65.0019ZM19.5095 8.53951V20.2362H8.56086V23.6278H19.5095V35.3245H23.1212V23.6242H34.1689V20.2325H23.1212V8.53951H21.3172H19.5095ZM41.8249 27.8628V41.0372H29.7139V45.3932H41.8285V58.5785H46.5219V45.3932H58.6549V41.0372H46.5182V27.8628H44.1825H41.8249ZM77.4685 33.5462V41.6898H70.0912V44.6635H77.4685V52.9539H80.7209V44.6635H88.1605V41.6898H80.7209V33.5499H79.1735L77.4685 33.5462ZM7.39486 34.0265V41.9979H0.160522V44.2748H7.39486V52.3195H9.84052V44.2748H17.1739V42.0015H9.72686V34.0229H8.56086L7.39486 34.0265ZM64.9945 50.5852V62.5165H53.9359V65.9155H64.9945V77.7112H68.9252V65.9192H79.8739V62.5165H68.9252V50.5852H66.9709H64.9945ZM19.2969 50.6145V62.5165H8.45452V65.9192H19.2969V77.6122H23.3339V65.9192H34.1689V62.5165H23.3339V50.6109H21.3172L19.2969 50.6145ZM42.4555 67.4005L42.4629 71.4449V75.4782H35.2359V78.4555H42.4629V86.7495H45.8655L45.9095 82.6465L45.9719 78.4555H53.1915V75.4782H45.8582V67.4005H44.1532H42.4555Z" fill="#454545"/>
</svg>
